<svg width="68" height="67" viewBox="0 0 68 67" fill="none" xmlns="http://www.w3.org/2000/svg">
<path d="M1.95254 19.8528C4.21679 8.93651 11.1837 2.85652 22.0508 1.0198C30.0841 -0.337671 38.1204 -0.354862 46.1402 1.05792C57.3294 3.02887 64.056 9.46344 66.1988 20.5447C67.8544 29.1087 67.8804 37.764 66.1728 46.3199C63.8821 57.1606 56.7355 63.8522 45.9085 65.6822C37.8752 67.0396 29.8389 67.0567 21.8191 65.6441C10.6298 63.673 3.87342 56.9172 1.73071 45.8361C-0.0092932 37.2156 0.15813 28.5055 1.95254 19.8526V19.8528Z" fill="#004AAD"/>
<path fill-rule="evenodd" clip-rule="evenodd" d="M14.2649 49.0309V20.8946C14.2649 19.427 15.4548 18.2371 16.9224 18.2371H53.6137V21.0741H17.1021V49.0309H14.2649ZM22.7072 25.8246L32.93 36.3193C33.6251 37.0638 34.7894 37.1116 35.5434 36.427C35.5434 36.427 44.4427 28.5168 46.92 26.3926C49.3971 24.2685 53.6136 24.8634 53.6136 28.0273V43.0562C53.6136 46.356 50.9387 49.0309 47.6388 49.0309H21.652V46.194H47.5885C49.3489 46.194 50.7765 44.7664 50.7765 43.0056V28.6527C50.7765 27.5894 50.0385 27.6997 49.5742 28.1161L36.3486 39.5307C35.0353 40.7086 33.021 40.6181 31.8189 39.327L20.634 27.7613L22.7072 25.8246Z" fill="white"/>
</svg>
